<svg id="Layer_1" data-name="Layer 1" xmlns="http://www.w3.org/2000/svg" viewBox="0 0 566.93 271.4"><defs><style>.cls-1{fill:#231f20}</style></defs><title>logo</title><path class="cls-1" d="M431.78 0a135.71 135.71 0 0 0-135.16 123.54h270.31A135.71 135.71 0 0 0 431.78 0zM147.87.55v123h123a135.73 135.73 0 0 0-123-123zM147.87 271.4h123.36V147.82l-123.36.05V271.4zM0 135.7a135.71 135.71 0 0 0 123.54 135.15V.55A135.71 135.71 0 0 0 0 135.7zM431.78 271.4a135.71 135.71 0 0 0 135.15-123.53H296.62A135.71 135.71 0 0 0 431.78 271.4z"/></svg>