<svg width="155" height="107" viewBox="0 0 155 107" xmlns="http://www.w3.org/2000/svg"><path d="M1.151 102.369h.772c.517 0 .891-.096 1.124-.288.232-.192.349-.477.349-.855 0-.384-.126-.66-.377-.827-.25-.167-.628-.25-1.134-.25h-.734v2.22zm0 .92v2.713H.04V99.21h1.92c.876 0 1.525.164 1.947.492.421.329.632.824.632 1.487 0 .846-.44 1.448-1.32 1.807l1.92 3.006H3.874l-1.626-2.713H1.15h.001zm9.769 2.713H7.076V99.21h3.844v.939H8.187v1.848h2.56v.93h-2.56v2.132h2.733v.943zm6.338-1.845c0 .605-.22 1.078-.656 1.421-.437.346-1.04.517-1.808.517s-1.397-.12-1.886-.358v-1.05c.309.146.638.26.987.344.349.084.673.126.974.126.439 0 .764-.084.973-.252a.816.816 0 0 0 .314-.674.841.841 0 0 0-.288-.644c-.192-.177-.589-.387-1.19-.628-.62-.25-1.057-.537-1.311-.86-.253-.321-.38-.709-.38-1.161 0-.566.2-1.013.603-1.338.404-.326.944-.487 1.622-.487a4.78 4.78 0 0 1 1.944.426l-.353.907c-.605-.254-1.144-.381-1.618-.381-.36 0-.632.078-.818.234a.775.775 0 0 0-.279.622.85.85 0 0 0 .112.451c.074.127.196.245.367.355.17.113.477.26.92.443.5.207.865.401 1.097.58.233.18.402.382.51.608.11.227.164.493.164.8v-.001zm2.267 1.845h1.11V99.21h-1.11v6.792zm8.211-3.424c0-1.625-.76-2.44-2.281-2.44h-.964v4.93h.791c1.636 0 2.454-.83 2.454-2.49zm1.172-.037c0 1.12-.313 1.978-.935 2.572-.622.592-1.52.889-2.69.889H23.38V99.21h2.1c1.082 0 1.924.29 2.524.873.601.582.903 1.402.903 2.458h.001zm6.254 3.461h-3.843V99.21h3.843v.939h-2.733v1.848h2.561v.93h-2.56v2.132h2.732v.943zm8.082 0h-1.362l-3.341-5.412h-.038l.024.302c.043.576.064 1.102.064 1.58v3.53h-1.008V99.21h1.348l3.332 5.384h.028c-.006-.07-.018-.33-.037-.778a26.425 26.425 0 0 1-.029-1.047V99.21h1.019v6.792zm5.636-5.937c-.638 0-1.14.226-1.506.678-.365.452-.548 1.076-.548 1.872 0 .833.175 1.464.528 1.89.35.429.86.642 1.527.642.287 0 .566-.028.836-.086.27-.057.55-.13.84-.22v.95c-.532.204-1.136.304-1.811.304-.995 0-1.759-.302-2.292-.904-.532-.602-.8-1.464-.8-2.584 0-.707.13-1.326.389-1.855a2.77 2.77 0 0 1 1.122-1.217c.49-.28 1.065-.422 1.724-.422.695 0 1.336.145 1.924.436l-.399.924a5.928 5.928 0 0 0-.727-.285 2.638 2.638 0 0 0-.806-.123h-.001zm7.937 5.937h-3.844V99.21h3.844v.939h-2.732v1.848h2.56v.93h-2.56v2.132h2.732v.943zm6.339-1.845c0 .605-.218 1.078-.655 1.421-.437.346-1.04.517-1.808.517-.77 0-1.398-.12-1.887-.358v-1.05c.309.146.64.26.987.344.35.084.674.126.974.126.44 0 .764-.084.973-.252a.816.816 0 0 0 .315-.674.842.842 0 0 0-.289-.644c-.192-.177-.589-.387-1.19-.628-.619-.25-1.057-.537-1.31-.86-.254-.321-.38-.709-.38-1.161 0-.566.2-1.013.603-1.338.403-.326.943-.487 1.622-.487a4.78 4.78 0 0 1 1.943.426l-.353.907c-.604-.254-1.144-.381-1.617-.381-.36 0-.633.078-.819.234a.775.775 0 0 0-.279.622.87.87 0 0 0 .112.451c.074.127.197.245.367.355.17.113.477.26.92.443.5.207.865.401 1.097.58.233.18.403.382.512.608.108.227.162.493.162.8v-.001zm8.935-.999l-.636-1.848a9.89 9.89 0 0 1-.193-.586c-.083-.266-.14-.46-.17-.585-.083.38-.207.798-.368 1.25l-.612 1.769h1.98-.001zm.971 2.844l-.678-1.886h-2.599l-.664 1.886H67.95l2.542-6.82h1.209l2.541 6.82h-1.18zm5.377 0h-1.11v-5.84h-2v-.952h5.109v.952h-2v5.84h.001zm7.415 0h1.112V99.21h-1.112v6.792zm6.748-5.937c-.638 0-1.14.226-1.505.678-.366.452-.55 1.076-.55 1.872 0 .833.176 1.464.528 1.89.352.429.86.642 1.527.642.289 0 .566-.028.837-.086.27-.057.55-.13.84-.22v.95c-.532.204-1.136.304-1.811.304-.996 0-1.76-.302-2.292-.904-.533-.602-.8-1.464-.8-2.584 0-.707.13-1.326.388-1.855.26-.53.633-.935 1.122-1.217.49-.28 1.066-.422 1.726-.422a4.29 4.29 0 0 1 1.923.436l-.4.924a5.796 5.796 0 0 0-.727-.285 2.633 2.633 0 0 0-.806-.123zm7.937 5.937h-3.844V99.21h3.844v.939h-2.732v1.848h2.56v.93h-2.56v2.132h2.732v.943zm10.199-3.424c0-1.625-.76-2.44-2.28-2.44h-.963v4.93h.79c1.636 0 2.453-.83 2.453-2.49zm1.172-.037c0 1.12-.311 1.978-.934 2.572-.623.592-1.52.889-2.692.889h-1.9V99.21h2.101c1.082 0 1.922.29 2.524.873.6.582.9 1.402.9 2.458h.001zm2.41 3.461h1.111V99.21h-1.11l-.001 6.792zm7.775-1.845c0 .605-.217 1.078-.654 1.421-.437.346-1.04.517-1.808.517s-1.398-.12-1.887-.358v-1.05c.31.146.64.26.988.344.349.084.673.126.973.126.44 0 .765-.084.973-.252a.816.816 0 0 0 .315-.674.839.839 0 0 0-.289-.644c-.192-.177-.588-.387-1.19-.628-.619-.25-1.056-.537-1.31-.86-.254-.321-.38-.709-.38-1.161 0-.566.2-1.013.603-1.338.403-.326.943-.487 1.623-.487.65 0 1.297.142 1.942.426l-.353.907c-.605-.254-1.143-.381-1.617-.381-.36 0-.633.078-.82.234a.775.775 0 0 0-.278.622.87.87 0 0 0 .112.451c.075.127.197.245.367.355.17.113.477.26.92.443.499.207.865.401 1.097.58.233.18.403.382.511.608.109.227.162.493.162.8v-.001zm4.615 1.845h-1.11v-5.84h-2v-.952h5.107v.952h-1.998v5.84h.001zm5.102-3.633h.772c.518 0 .892-.096 1.125-.288.232-.192.348-.477.348-.855 0-.384-.125-.66-.377-.827-.25-.167-.628-.25-1.133-.25h-.735v2.22zm0 .92v2.713h-1.11V99.21h1.92c.876 0 1.525.164 1.947.492.42.329.632.824.632 1.487 0 .846-.44 1.448-1.32 1.807l1.92 3.006h-1.265l-1.627-2.713h-1.097zm5.925 2.713h1.11V99.21h-1.11v6.792zm6.748-5.937c-.638 0-1.14.226-1.506.678-.366.452-.549 1.076-.549 1.872 0 .833.176 1.464.528 1.89.351.429.86.642 1.527.642.288 0 .567-.028.836-.086.27-.057.55-.13.841-.22v.95c-.533.204-1.137.304-1.812.304-.995 0-1.759-.302-2.292-.904-.532-.602-.8-1.464-.8-2.584 0-.707.13-1.326.389-1.855a2.77 2.77 0 0 1 1.122-1.217c.49-.28 1.065-.422 1.725-.422.694 0 1.335.145 1.923.436l-.399.924a5.928 5.928 0 0 0-.727-.285 2.638 2.638 0 0 0-.806-.123zm6.44 5.937h-1.11v-5.84h-2v-.952h5.109v.952h-2v5.84h.001zM101.78 56.746L86.053 27.6l-3.481 4.027 13.554 25.118h5.654M31.84 46.137c-.927 2.056-2.482 3.848-4.466 4.877-7.157 3.71-17.31 2.817-22.87-6.067l-4.22 2.638c4.584 7.323 11.788 10.397 18.729 10.397 3.784 0 7.492-.914 10.652-2.552 3.662-1.898 6.347-5.385 7.484-9.293H31.84M19.349 25.724c-6.414-1.068-9.977-3.649-11.6-6.516H2.343C3.966 24.154 8.745 29 18.53 30.63c7.828 1.305 12.735 4.538 13.955 9.15h5.08C35.872 29.559 24.273 26.545 19.35 25.724M6.983 12.851c1.11-3.811 4.972-7.365 10.946-7.365 6.099 0 10.881 2.43 14.213 7.222l4.087-2.84C33.261 5.6 27.676.511 17.929.511c-8.141 0-14.812 5.226-16.046 12.34h5.1M92.974 1.907L62.333 37.883l-.594.698v18.165h4.977V40.41l32.61-38.287-.256-.216h-6.096m-31.234 0V28.69l4.976-5.759V1.907h-4.977m54.828 0l12.43 23.05 2.83-5.237-9.606-17.813h-5.654m32.099 0l-15.711 29.132v25.707h4.977V32.295L154.32 1.907h-5.654" fill="#FFF"/></svg>