<?xml version="1.0" encoding="utf-8"?>
<!-- Generator: Adobe Illustrator 18.1.0, SVG Export Plug-In . SVG Version: 6.00 Build 0)  -->
<svg version="1.1" id="Layer_1" xmlns="http://www.w3.org/2000/svg" xmlns:xlink="http://www.w3.org/1999/xlink" x="0px" y="0px"
	 viewBox="0 0 634.8 258.3" enable-background="new 0 0 634.8 258.3" xml:space="preserve">
<g>
	<defs>
		<rect id="SVGID_1_" width="634.8" height="258.3"/>
	</defs>
	<clipPath id="SVGID_2_">
		<use xlink:href="#SVGID_1_"  overflow="visible"/>
	</clipPath>
	<path clip-path="url(#SVGID_2_)" fill="#CC0000" d="M508.7,2.9C506.6,1,504.1,0,501.2,0c-2.9,0-5.4,1-7.5,2.9
		c-1.9,2.1-2.9,4.6-3.1,7.5v15.5h-3.3c-2.7,0-4.8,0.8-6.4,2.5c-1.7,1.9-2.5,3.9-2.7,6.4c0.2,2.7,1,4.8,2.7,6.4
		c1.7,1.7,3.7,2.5,6.4,2.7h3.3v48c0.2,9.7,2.7,16.8,7.5,20.7c3.3,2.9,7.5,4.8,12.4,5.6c2.1,0.2,4.1,0.4,6.4,0.4
		c2.3,0,4.3-0.2,6.4-0.4c0.4,0,0.8,0,1.2-0.2c2.3-0.4,4.3-1,6.6-1.9c1.4-0.6,2.9-1.7,3.9-3.1c1-1.5,1.7-3.1,1.7-5
		c0-2.5-0.8-4.6-2.7-6c-1.7-1.7-3.7-2.5-6.2-2.7c-0.2,0-0.8,0.2-1.9,0.4c-1,0.2-2.1,0.2-3.3,0.2c-3.5,0-6.2-0.8-8.1-2.7
		c-2.1-1.9-3.1-4.8-3.1-8.7V43.9h16.4c2.7-0.2,4.8-1,6.6-2.7c1.7-1.7,2.5-3.7,2.7-6.4c-0.2-2.5-1-4.6-2.7-6.4
		c-1.9-1.7-3.9-2.5-6.6-2.5h-16.4V10.4C511.6,7.5,510.5,5,508.7,2.9"/>
	<path clip-path="url(#SVGID_2_)" fill="#CC0000" d="M558.8,37.1c-2.7,4.1-4.1,9.1-4.3,14.9v0.4c0.2,5.8,1.6,10.4,4.3,13.9
		c2.9,3.5,6.4,6.2,10.8,8.1c4.3,2.1,8.9,3.7,13.5,5c3.5,1,6.8,2.1,9.9,3.1c3.1,1,5.8,2.3,7.7,3.7c1.9,1.5,2.7,3.5,2.7,5.8v0.4
		c0,3.1-1.2,5.4-3.5,7.2c-2.5,1.7-6,2.5-10.6,2.5c-4.1,0-8.5-0.6-13-2.1c-4.4-1.4-8.9-3.7-13.3-6.6c-0.6-0.4-1.2-0.8-2.1-1
		c-0.6-0.2-1.5-0.2-2.5-0.2c-2.5,0-4.6,0.8-6,2.5c-1.4,1.4-2.3,3.5-2.3,6c0,1.9,0.4,3.3,1,4.6c0.8,1.2,1.9,2.1,2.9,2.7
		c5.4,3.5,11,6.4,17,8.3c3.1,1,6.2,1.7,9.3,2.1c2.7,0.4,5.6,0.6,8.5,0.6c2.7,0,5.4-0.2,7.9-0.6c3.3-0.6,6.4-1.5,9.3-2.7
		c5-2.1,8.9-5.2,12-9.5c2.9-4.3,4.3-9.5,4.6-15.9v-0.4c-0.2-5.4-1.7-9.7-4.4-13.3c-2.9-3.5-6.4-6.2-10.8-8.1
		c-4.4-2.1-8.7-3.7-13.3-5.2c-3.5-1-7-2.3-10.1-3.5c-3.1-1-5.6-2.5-7.5-3.9c-1.9-1.4-2.9-3.3-2.9-5.6v-0.4c0-2.7,1-4.8,3.3-6.4
		c2.3-1.5,5.4-2.3,9.5-2.5c3.1,0,6.6,0.6,10.4,1.7c3.5,1,7.2,2.7,11,4.6c0.6,0.4,1.2,0.6,1.9,0.8c0.6,0.2,1.4,0.2,2.3,0.2
		c2.5,0,4.6-0.8,6.2-2.5c1.5-1.5,2.3-3.5,2.5-6c0-1.9-0.4-3.3-1.5-4.8c-0.8-1.2-2.1-2.3-3.5-3.1c-4.6-2.3-9.3-4.1-14.1-5.6
		c-5-1.2-9.9-1.9-14.7-1.9c-6,0-11.6,1-16.4,3.3C565.6,29.8,561.7,33.1,558.8,37.1"/>
	<path clip-path="url(#SVGID_2_)" fill="#CC0000" d="M436.2,44.7v-9.3c-0.2-3.1-1.2-5.6-3.1-7.5c-2.1-2.1-4.6-3.1-7.5-3.1
		c-3.1,0-5.6,1-7.5,3.1c-1.9,1.9-2.9,4.3-2.9,7.5v72.1c0,3.1,1,5.6,2.9,7.5c1.9,1.9,4.3,2.9,7.5,2.9c2.9,0,5.4-1,7.5-3.1
		c1.9-1.9,2.9-4.4,3.1-7.2V80.6c0-10.8,2.3-19.1,6.8-24.9c4.6-6,10.6-9.5,18-10.8c2.5-0.4,4.6-1.4,6-3.3c1.5-1.7,2.3-3.9,2.3-6.6
		c0-3.1-0.8-5.6-2.7-7.5c-1.9-1.9-4.4-2.9-7.7-2.9c-4.8,0-9.1,1.9-13,5.6C441.8,34,438.5,38.7,436.2,44.7"/>
	<path clip-path="url(#SVGID_2_)" fill="#999999" d="M432.9,154.7c-2.1-0.8-4.4-1.2-7.1-1.2c-2.3,0.2-4.1,0.6-6,1.4
		c-1.9,0.8-3.3,2.1-4.3,3.5c-1,1.4-1.4,3.3-1.4,5.2v0.2c0,2.1,0.4,3.7,1.4,5.2c0.8,1.2,2.1,2.3,3.9,3.1c1.7,0.8,3.7,1.4,6.2,2.1
		c2.1,0.6,3.7,1,5,1.4c1,0.6,1.9,1,2.3,1.7c0.4,0.6,0.6,1.4,0.6,2.3c0,1.4-0.6,2.5-1.6,3.1c-1,0.8-2.7,1.2-4.6,1.2
		c-2.1,0-3.9-0.4-5.8-1c-1.9-0.8-3.5-2.1-5.2-3.5l-3.7,4.6c2.1,1.9,4.3,3.1,6.8,4.1c2.5,0.8,5,1.2,7.7,1.2c2.5,0,4.8-0.4,6.6-1.2
		c1.9-0.6,3.3-1.9,4.3-3.5c1-1.4,1.4-3.3,1.4-5.6c0-1.9-0.4-3.5-1.2-4.8c-0.8-1.4-2.1-2.5-3.7-3.3c-1.7-0.8-3.7-1.4-6-2.1
		c-2.3-0.6-3.9-1-5.2-1.7c-1.2-0.6-2.1-1-2.5-1.7c-0.6-0.6-0.8-1.4-0.6-2.3c0-1.2,0.4-2.3,1.4-3.1c1-0.6,2.3-1,4.1-1
		c1.5,0,3.1,0.2,4.8,0.8c1.4,0.6,3.1,1.5,4.8,2.7l3.1-4.6C436.8,156.6,434.9,155.3,432.9,154.7"/>
	<polygon clip-path="url(#SVGID_2_)" fill="#999999" points="443.6,154.1 443.6,159.7 454.6,159.7 454.6,188.9 460.8,188.9 
		460.8,159.7 471.8,159.7 471.8,154.1 	"/>
	<polygon clip-path="url(#SVGID_2_)" fill="#999999" points="491.7,154.1 491.7,159.7 502.7,159.7 502.7,188.9 508.9,188.9 
		508.9,159.7 519.9,159.7 519.9,154.1 	"/>
	<rect x="478.6" y="154.1" clip-path="url(#SVGID_2_)" fill="#999999" width="6.2" height="34.8"/>
	<path clip-path="url(#SVGID_2_)" fill="#999999" d="M532.1,154.1h-6.2v20.1c0,3.3,0.6,6.2,1.9,8.5c1.2,2.3,2.9,3.9,5.2,5
		c2.3,1.2,4.8,1.9,7.7,1.9c3.1,0,5.8-0.6,8.1-1.9c2.3-1,3.9-2.9,5.2-5.2c1.2-2.3,1.9-5.2,1.9-8.7v-19.7h-6.2v20.1
		c0,3.1-0.8,5.6-2.3,7.2c-1.5,1.4-3.7,2.3-6.4,2.3c-2.7,0-5-0.8-6.4-2.5c-1.5-1.7-2.3-4.1-2.3-7.2V154.1z"/>
	<polygon clip-path="url(#SVGID_2_)" fill="#999999" points="561.7,159.7 572.7,159.7 572.7,188.9 578.9,188.9 578.9,159.7 
		589.9,159.7 589.9,154.1 561.7,154.1 	"/>
	<polygon clip-path="url(#SVGID_2_)" fill="#999999" points="622.2,159.5 622.2,154.1 596.5,154.1 596.5,188.9 622.4,188.9 
		622.4,183.5 602.5,183.5 602.5,174.2 619.9,174.2 619.9,168.6 602.5,168.6 602.5,159.5 	"/>
	<path clip-path="url(#SVGID_2_)" fill="#999999" d="M616.2,212.7c-2.1-0.8-4.3-1.2-7-1.2c-2.3,0.2-4.1,0.6-6,1.4
		c-1.9,0.8-3.3,2.1-4.3,3.5c-1,1.5-1.4,3.3-1.4,5.2v0.2c0,2.1,0.4,3.7,1.4,5.2c0.8,1.2,2.1,2.3,3.9,3.1c1.7,0.8,3.7,1.5,6.2,2.1
		c2.1,0.6,3.7,1,5,1.4c1,0.6,1.9,1,2.3,1.7c0.4,0.6,0.6,1.4,0.6,2.3c0,1.4-0.6,2.5-1.7,3.1c-1,0.8-2.7,1.2-4.6,1.2
		c-2.1,0-3.9-0.4-5.8-1c-1.9-0.8-3.5-2.1-5.2-3.5l-3.7,4.6c2.1,1.9,4.3,3.1,6.8,4.1c2.5,0.8,5,1.2,7.7,1.2c2.5,0,4.8-0.4,6.6-1.2
		c1.9-0.6,3.3-1.9,4.3-3.5c1-1.4,1.4-3.3,1.4-5.6c0-1.9-0.4-3.5-1.2-4.8c-0.8-1.4-2.1-2.5-3.7-3.3c-1.7-0.8-3.7-1.4-6-2.1
		c-2.3-0.6-3.9-1-5.2-1.7c-1.2-0.6-2.1-1-2.5-1.7c-0.6-0.6-0.8-1.5-0.6-2.3c0-1.2,0.4-2.3,1.4-3.1c1-0.6,2.3-1,4.1-1
		c1.5,0,3.1,0.2,4.8,0.8c1.4,0.6,3.1,1.4,4.8,2.7l3.1-4.6C620.1,214.6,618.2,213.3,616.2,212.7"/>
	<polygon clip-path="url(#SVGID_2_)" fill="#999999" points="545.5,217.7 556.5,217.7 556.5,246.9 562.7,246.9 562.7,217.7 
		573.7,217.7 573.7,212.1 545.5,212.1 	"/>
	<path clip-path="url(#SVGID_2_)" fill="#999999" d="M513.4,212.9c-1.9-0.6-3.7-0.8-6-0.8h-15.3v34.8h6v-12.2h7.7l8.5,12.2h7.3
		l-9.3-13.3c1.7-0.4,3.1-1,4.4-2.1c1.2-0.8,2.3-2.1,2.9-3.5c0.6-1.4,1-2.9,1-4.8v-0.2c0-1.4-0.2-2.9-0.8-4.1c-0.4-1.2-1-2.3-2.1-3.3
		C516.5,214.6,515.1,213.5,513.4,212.9 M498.1,217.7h8.9c2.3,0,4.1,0.4,5.4,1.4c1.2,1,1.9,2.5,1.9,4.4c0,1.9-0.6,3.3-1.9,4.3
		c-1.4,1-3.1,1.5-5.4,1.5h-8.9V217.7z"/>
	<path clip-path="url(#SVGID_2_)" fill="#999999" d="M450.7,211.9h-5.6l-15.3,35h6.2l3.7-8.5h16.4l3.5,8.5h6.4L450.7,211.9z
		 M453.8,233H442l5.8-13.9L453.8,233z"/>
	<path clip-path="url(#SVGID_2_)" fill="#666666" d="M161.1,62.5v2.3c-3.5-1-7-2.1-11-2.7c-3.9-0.6-8.5-1-13.5-1
		c-7.5,0-14.1,1-19.7,3.1c-5.6,2.3-10.1,5.4-13.3,9.7c-3.1,4.3-4.6,9.9-4.8,16.4v0.4c0.2,6.2,1.7,11.4,4.6,15.5
		c3.1,4.1,7,7.2,11.8,9.5c2.7,1,5.4,1.9,8.5,2.5c2.3,0.4,4.8,0.6,7.5,0.6c2.9,0,5.6-0.2,8.1-0.6c3.5-0.6,6.8-1.7,9.7-3.1
		c4.8-2.5,8.9-5.6,12-9.5v3.3c0,2.5,0.8,4.6,2.7,6.2c1.9,1.9,4.3,2.7,7.5,2.7c2.9,0,5.4-1,7.2-2.9c1.9-1.9,2.9-4.1,2.9-7V63
		c0-6-0.8-11.4-2.5-16.2c-1.5-4.8-3.9-8.7-7.5-12c-3.1-3.3-7.2-5.8-12.2-7.7c-5.2-1.7-11-2.5-17.8-2.5c-6,0-11.2,0.4-15.9,1.4
		c-4.8,1-9.3,2.3-13.5,3.7c-1.7,0.6-3.1,1.9-4.1,3.3c-1,1.5-1.5,3.1-1.7,5.2c0.2,2.5,1,4.6,2.7,6c1.7,1.7,3.7,2.5,6.2,2.5h1.5
		c0.6-0.2,1.2-0.2,1.9-0.4c2.7-1,5.8-2.1,9.1-2.7c3.5-0.6,7-1,11-1c7.5,0,13,1.7,16.8,5.2C159.3,51.2,161.1,56.1,161.1,62.5
		 M119.5,89.9v-0.2c0-4.8,1.9-8.7,5.6-11.4c3.7-2.7,8.9-3.9,15.7-3.9c4.1,0,7.9,0.4,11.4,1s6.6,1.4,9.3,2.5v6.4
		c0,3.9-1,7.2-3.3,10.1c-2.1,2.9-5,5.2-8.5,6.8c-3.7,1.7-7.9,2.5-12.4,2.5c-5.2,0-9.3-1.2-12.6-3.5
		C121.4,97.8,119.7,94.2,119.5,89.9"/>
	<path clip-path="url(#SVGID_2_)" fill="#666666" d="M238.6,28.8c-4.6,3.1-8.3,6.6-11,11v-4.3c-0.2-3.1-1.2-5.6-3.1-7.5
		c-2.1-2.1-4.6-3.1-7.5-3.1c-3.1,0-5.6,1-7.5,3.1c-1.9,1.9-2.9,4.3-2.9,7.5v72.1c0,3.1,1,5.6,2.9,7.5c1.9,1.9,4.4,2.9,7.5,2.9
		c2.9,0,5.4-1,7.5-2.9c1.9-1.9,2.9-4.3,3.1-7.5v-42c0-7.2,1.9-12.6,5.6-16.6c3.7-3.9,8.7-6,14.7-6c6.4,0,11.2,1.9,14.5,5.8
		c3.3,3.9,5,9.3,5.2,16.6v42.3c0,3.1,1,5.6,2.9,7.5c2.1,1.9,4.6,2.9,7.5,2.9c3.1,0,5.6-1,7.5-2.9c1.9-1.9,2.9-4.3,3.1-7.5V58.8
		c-0.2-10.6-3.1-19.1-8.7-25.5c-5.6-6.2-13.5-9.3-23.8-9.5C249,24,243.2,25.7,238.6,28.8"/>
	<path clip-path="url(#SVGID_2_)" fill="#666666" d="M85.1,27.8c-1.9-1.9-4.3-2.9-7.2-2.9c-2.7,0-5,0.8-6.4,2.3
		c-1.4,1.4-2.7,3.1-3.5,5L44.1,93L20.7,32.5c-0.8-2.3-2.1-4.1-3.7-5.6c-1.7-1.4-3.9-2.1-6.6-2.1C7.5,25.1,5,26.1,2.9,28
		C1,29.8,0,32.1,0,34.8c0,1,0.2,1.9,0.4,2.7c0.2,1,0.4,1.9,0.6,2.5l30.4,69.6c1.2,2.9,2.9,5.2,4.8,6.6c1,1,2.3,1.7,3.7,2.1
		c1,0.4,2.3,0.6,3.5,0.6h1c1.2,0,2.5-0.2,3.5-0.6c1.5-0.4,2.5-1,3.5-2.1c2.1-1.7,3.7-3.9,4.8-6.6l30.4-69.8c0.2-0.4,0.6-1,0.8-2.1
		c0.2-1,0.4-1.9,0.4-2.9C88,31.9,87,29.6,85.1,27.8L85.1,27.8z"/>
	<polygon clip-path="url(#SVGID_2_)" fill="#999999" points="113.7,154.1 107.7,154.1 107.7,178.1 89.1,154.1 83.5,154.1 
		83.5,188.9 89.5,188.9 89.5,164 108.5,188.9 113.7,188.9 	"/>
	<path clip-path="url(#SVGID_2_)" fill="#999999" d="M129.9,156c-2.7,1.7-5,3.7-6.4,6.4c-1.5,2.7-2.3,5.8-2.3,9.1
		c0,3.5,0.8,6.4,2.3,9.1c1.4,2.7,3.7,5,6.4,6.4c2.7,1.7,5.6,2.5,9.1,2.5c2.1,0,3.9-0.2,5.6-0.8c1.7-0.4,3.1-1,4.6-2.1
		c1.5-1,2.7-2.1,3.9-3.3l-3.9-3.9c-1.4,1.5-3.1,2.5-4.6,3.3c-1.4,0.8-3.3,1.2-5.4,1.2c-2.3-0.2-4.4-0.6-6-1.7
		c-1.9-1-3.1-2.7-4.1-4.6c-1-1.9-1.4-3.9-1.4-6.2c0-2.3,0.4-4.3,1.4-6.2c1-1.9,2.5-3.5,4.1-4.6c1.7-1,3.7-1.7,6-1.7
		c1.9,0,3.7,0.4,5.2,1.2c1.7,0.6,3.1,1.7,4.6,3.1l3.9-4.6c-1-1-2.3-2.1-3.7-2.7c-1.2-0.8-2.7-1.4-4.3-2.1c-1.7-0.4-3.5-0.6-5.6-0.6
		C135.7,153.5,132.6,154.3,129.9,156"/>
	<path clip-path="url(#SVGID_2_)" fill="#999999" d="M167.8,154.9c-2.3,1-4.1,2.3-5.8,3.9c-1.7,1.7-2.9,3.5-3.7,5.6
		c-1,2.3-1.5,4.6-1.5,7c0,3.3,0.8,6.4,2.3,9.1c1.5,2.7,3.7,4.8,6.4,6.4c2.7,1.7,6,2.5,9.5,2.5c2.7,0,5-0.4,7.2-1.4
		c2.3-1,4.1-2.3,5.8-3.9c1.7-1.7,2.9-3.5,3.7-5.6c1-2.3,1.5-4.6,1.5-7c0-3.5-0.8-6.4-2.3-9.1c-1.5-2.7-3.7-4.8-6.4-6.4
		c-2.7-1.7-6-2.5-9.5-2.5C172.3,153.5,170,153.9,167.8,154.9 M164.7,165.3c1-1.9,2.5-3.5,4.1-4.6c1.9-1,3.9-1.7,6.2-1.7
		s4.4,0.6,6,1.7c1.9,1,3.3,2.7,4.3,4.6c1,1.9,1.5,3.9,1.5,6.2s-0.4,4.3-1.5,6.2c-1,1.9-2.5,3.5-4.1,4.6c-1.9,1-3.9,1.4-6.2,1.7
		c-2.3-0.2-4.3-0.8-6-1.9c-1.9-1-3.1-2.5-4.1-4.3c-1-1.9-1.7-3.9-1.7-6.2S163.6,167.1,164.7,165.3"/>
	<polygon clip-path="url(#SVGID_2_)" fill="#999999" points="242.1,154.1 235.3,154.1 249.8,189.1 255.2,189.1 269.7,154.1 
		263,154.1 252.7,180.8 	"/>
	<path clip-path="url(#SVGID_2_)" fill="#999999" d="M229.9,154.1h-6.2v20.1c0,3.1-0.8,5.6-2.3,7.2c-1.4,1.4-3.7,2.3-6.4,2.3
		c-2.7,0-5-0.8-6.4-2.5c-1.4-1.7-2.3-4.1-2.3-7.2v-19.9h-6.2v20.1c0,3.3,0.6,6.2,1.9,8.5c1.2,2.3,2.9,3.9,5.2,5
		c2.3,1.2,4.8,1.9,7.7,1.9c3.1,0,5.8-0.6,8.1-1.9c2.3-1,3.9-2.9,5.2-5.2c1.2-2.3,1.9-5.2,1.9-8.7V154.1z"/>
	<path clip-path="url(#SVGID_2_)" fill="#CC0000" d="M350,24.6c-6,0-11.2,0.4-16,1.5c-4.8,1-9.3,2.3-13.5,3.7
		c-1.7,0.6-3.1,1.9-4.1,3.3c-1,1.5-1.5,3.1-1.7,5.2c0.2,2.5,1,4.6,2.7,6c1.7,1.7,3.7,2.5,6.2,2.5h1.5c0.6-0.2,1.2-0.2,1.9-0.4
		c2.7-1,5.8-2.1,9.1-2.7c3.5-0.6,7-1,11-1c7.5,0,13.1,1.7,16.8,5.2c3.9,3.3,5.8,8.3,5.8,14.7v2.3c-3.5-1-7-2.1-11-2.7
		c-3.9-0.6-8.5-1-13.5-1c-7.5,0-14.1,1-19.7,3.1c-5.6,2.3-10.1,5.4-13.3,9.7c-3.1,4.3-4.6,9.9-4.8,16.4v0.4
		c0.2,6.2,1.7,11.4,4.6,15.5c3.1,4.1,7,7.2,11.8,9.5c2.7,1,5.4,1.9,8.5,2.5c2.3,0.4,4.8,0.6,7.5,0.6c2.9,0,5.6-0.2,8.1-0.6
		c3.5-0.6,6.8-1.7,9.7-3.1c4.8-2.5,8.9-5.6,12-9.5v3.3c0,2.5,0.8,4.6,2.7,6.2c1.9,1.9,4.4,2.7,7.5,2.7c2.9,0,5.4-1,7.2-2.9
		c1.9-1.9,2.9-4.1,2.9-7V63c0-6-0.8-11.4-2.5-16.2c-1.4-4.8-3.9-8.7-7.5-12c-3.1-3.3-7.2-5.8-12.2-7.7
		C362.7,25.5,356.9,24.6,350,24.6L350,24.6z M328.1,89.9v-0.2c0-4.8,1.9-8.7,5.6-11.4c3.7-2.7,8.9-3.9,15.7-3.9
		c4.1,0,7.9,0.4,11.4,1s6.6,1.4,9.3,2.5v6.4c0,3.9-1,7.2-3.3,10.1c-2.1,2.9-5,5.2-8.5,6.8c-3.7,1.7-7.9,2.5-12.4,2.5
		c-5.2,0-9.3-1.2-12.6-3.5C329.9,97.8,328.3,94.2,328.1,89.9"/>
	<polygon clip-path="url(#SVGID_2_)" fill="#999999" points="301.4,159.5 301.4,154.1 275.7,154.1 275.7,188.9 301.6,188.9 
		301.6,183.5 281.7,183.5 281.7,174.2 299.1,174.2 299.1,168.6 281.7,168.6 281.7,159.5 	"/>
	<path clip-path="url(#SVGID_2_)" fill="#999999" d="M324.3,154.1H309v34.8h6v-12.2h7.7l8.5,12.2h7.3l-9.3-13.3
		c1.7-0.4,3.1-1,4.3-2.1c1.2-0.8,2.3-2.1,2.9-3.5c0.6-1.4,1-2.9,1-4.8v-0.2c0-1.4-0.2-2.9-0.8-4.1c-0.4-1.2-1-2.3-2.1-3.3
		c-1-1-2.5-2.1-4.1-2.7C328.5,154.3,326.6,154.1,324.3,154.1 M315,159.7h8.9c2.3,0,4.1,0.4,5.4,1.5c1.2,1,1.9,2.5,1.9,4.3
		c0,1.9-0.6,3.3-1.9,4.4c-1.5,1-3.1,1.4-5.4,1.4H315V159.7z"/>
	<rect x="360.2" y="154.1" clip-path="url(#SVGID_2_)" fill="#999999" width="6.2" height="34.8"/>
	<polygon clip-path="url(#SVGID_2_)" fill="#999999" points="381.3,154.1 375.7,154.1 375.7,188.9 381.7,188.9 381.7,164 
		400.8,188.9 405.9,188.9 405.9,154.1 399.9,154.1 399.9,178.1 	"/>
	<polygon clip-path="url(#SVGID_2_)" fill="#999999" points="15.5,154.1 8.7,154.1 23.2,189.1 28.6,189.1 43.1,154.1 36.5,154.1 
		26.1,180.8 	"/>
	<path clip-path="url(#SVGID_2_)" fill="#999999" d="M61.9,153.9h-5.6l-15.3,35h6.2l3.7-8.5h16.4l3.5,8.5h6.4L61.9,153.9z M65,175
		H53.2l5.8-13.9L65,175z"/>
	<path clip-path="url(#SVGID_2_)" fill="#999999" d="M354.2,211.9h-5.6l-15.3,35h6.2l3.7-8.5h16.4l3.5,8.5h6.4L354.2,211.9z
		 M357.3,233h-11.8l5.8-13.9L357.3,233z"/>
	<rect x="300.9" y="212.1" clip-path="url(#SVGID_2_)" fill="#999999" width="6.2" height="34.8"/>
	<path clip-path="url(#SVGID_2_)" fill="#999999" d="M265.1,214.4c-2.7-1.5-6-2.3-9.7-2.3h-12.8v34.8h12.8c3.7,0,7-0.8,9.7-2.3
		c2.7-1.4,5-3.5,6.4-6.2c1.5-2.7,2.3-5.6,2.5-8.9c-0.2-3.3-1-6.2-2.5-8.9C270.1,217.9,267.8,215.8,265.1,214.4 M248.5,217.7h6.8
		c2.5,0,4.6,0.4,6.4,1.4c1.9,1,3.1,2.5,4.1,4.4c1,1.7,1.7,3.7,1.7,6c0,2.3-0.6,4.4-1.7,6.2c-1,1.9-2.3,3.1-4.1,4.1
		c-1.9,1-3.9,1.4-6.4,1.4h-6.8V217.7z"/>
	<polygon clip-path="url(#SVGID_2_)" fill="#999999" points="214.4,217.5 214.4,212.1 188.7,212.1 188.7,246.9 214.6,246.9 
		214.6,241.5 194.7,241.5 194.7,232.2 212.1,232.2 212.1,226.6 194.7,226.6 194.7,217.5 	"/>
	<polygon clip-path="url(#SVGID_2_)" fill="#999999" points="130.9,212.1 124.5,212.1 124.5,246.9 130.5,246.9 130.5,222 
		141.3,238.4 141.5,238.4 152.4,222 152.4,246.9 158.6,246.9 158.6,212.1 152,212.1 141.5,228.4 	"/>
	<path clip-path="url(#SVGID_2_)" fill="#999999" d="M70.2,216.6c0.4,0.2,0.8,0.2,1.5,0.4c0.6,0.2,1,0,1.7-0.2
		c0.4-0.4,0.6-0.8,0.6-1.4c0-0.6-0.2-1-0.4-1.2c-0.2-0.2-0.6-0.4-1-0.6c-0.6-0.2-1.2-0.4-1.9-0.4c-0.6-0.2-1.4-0.2-2.1-0.2
		c-2.5,0-4.6,0.6-6.2,1.9c-1.4,1.2-2.3,2.9-2.9,5.2c-0.2,0.2-0.2,0.6-0.4,1l-1,3.5h-2.7c-0.4,0-0.6,0-0.8,0.2c-0.2,0-0.2,0-0.4,0.2
		c-0.4,0.4-0.6,0.8-0.6,1.2c0,0.6,0.2,1,0.6,1.4c0.2,0.2,0.6,0.4,1,0.4H57l-5.8,22l0.2-0.4l-0.4,1c-0.6,1.2-1.2,2.3-1.9,2.9
		c-1,0.8-2.1,1.2-3.5,1.2c-0.6,0-1,0-1.7-0.2c-0.4-0.2-0.8-0.2-1.5-0.4c-0.6-0.2-1,0-1.7,0.2c-0.4,0.4-0.6,0.8-0.6,1.5
		c0,0.6,0.2,1,0.4,1.2s0.6,0.4,1,0.6c0.6,0.2,1.2,0.4,1.9,0.4c0.6,0.2,1.5,0.2,2.1,0.2c2.5,0,4.6-0.6,6.2-1.9c1.2-1,2.3-2.9,3.1-5.4
		l0.2-0.4v-0.2l6-22.4h8.1c0.4,0,0.8-0.2,1.2-0.4c0.2-0.4,0.4-0.8,0.4-1.4c0-0.4-0.2-0.8-0.4-1.2c-0.2-0.2-0.2-0.2-0.4-0.2
		c-0.2-0.2-0.6-0.2-0.8-0.2h-7l0.6-2.7c0.2-0.6,0.4-1.2,0.8-1.9c0.4-1,0.8-1.7,1.5-2.3c1-0.8,2.1-1.2,3.5-1.2
		C69.2,216.4,69.6,216.4,70.2,216.6"/>
	<path clip-path="url(#SVGID_2_)" fill="#999999" d="M23.6,220c-1.7,1-3.1,2.1-4.4,3.3c-1.4,1.5-2.7,3.3-3.5,5.4
		c-0.8,1.9-1.2,3.9-1.2,6.2c0,2.3,0.4,4.6,1.4,6.4c1,1.9,2.7,3.3,4.6,4.4c1.9,1,3.9,1.7,6.6,1.7c2.9,0,5.6-0.8,8.1-2.3
		c2.5-1.4,4.6-3.5,6-6c1.4-2.5,2.3-5.2,2.3-8.3c0-2.5-0.6-4.6-1.7-6.4c-1-1.9-2.5-3.3-4.3-4.3c-1.9-1-4.1-1.7-6.6-1.7
		c-2.3,0-4.3,0.4-6.4,1.2C24.2,219.7,23.8,219.7,23.6,220 M24.6,223.7c1.9-1,3.7-1.7,5.8-1.9c2.7,0,4.8,0.8,6.4,2.5
		c1.4,1.5,2.3,3.7,2.5,6.6c-0.2,2.3-0.8,4.3-1.9,6.2c-1,1.9-2.5,3.5-4.4,4.6c-1.9,1.2-3.7,1.9-5.8,1.9c-2.7,0-4.8-0.8-6.2-2.3
		c-1.7-1.4-2.5-3.7-2.5-6.6c0-2.3,0.6-4.3,1.7-6.2C21.3,226.6,22.8,224.9,24.6,223.7L24.6,223.7z"/>
	<path clip-path="url(#SVGID_2_)" fill="#666666" d="M611.2,12.3L611.2,12.3c0-6.5,5.2-11.9,11.9-11.9c6.6,0,11.8,5.3,11.8,11.7v0.1
		c0,6.4-5.2,11.8-11.9,11.8C616.3,24,611.2,18.7,611.2,12.3 M633.7,12.2L633.7,12.2c0-6-4.6-10.8-10.7-10.8
		c-6.1,0-10.8,4.9-10.8,10.8v0.1c0,5.9,4.6,10.7,10.7,10.7C629.1,23,633.7,18.1,633.7,12.2 M618.4,6.7c0-0.5,0.4-0.9,0.9-0.9h4.5
		c1.5,0,2.8,0.5,3.6,1.3c0.6,0.6,1,1.4,1,2.4v0.1c0,1.9-1.3,3.1-3.1,3.5l2.9,3.6c0.1,0.2,0.2,0.4,0.2,0.7c0,0.5-0.4,0.8-0.9,0.8
		c-0.4,0-0.6-0.1-0.8-0.4l-3.4-4.3h-3.1v3.8c0,0.5-0.4,0.9-0.9,0.9c-0.5,0-0.9-0.4-0.9-0.9V6.7z M623.6,11.7c1.7,0,2.9-0.8,2.9-2.2
		V9.5c0-1.3-1-2.1-2.8-2.1h-3.6v4.3H623.6z"/>
</g>
</svg>
