<svg viewBox="0 0 1323.8 206.6" id="logo" width="100%" height="100%"><path fill="#FFF" d="M1280.2 76.4c3 0 5.8-1.2 6.6-3.6.8-2.4.3-14.3.3-23.6V34.7c0-5.3-.4-8.8-1.1-10.6-.7-1.8-2.2-2.7-4.4-2.7-2.7 0-4.5 1.2-5.2 3.6-.8 2.4-1.2 7.8-1.2 16.2v2.7h-35.6c.1-12.6 1.2-15.8 3.2-21.6 2-5.8 6.3-10.9 13-15.2 6.7-4.3 15.2-6.5 25.5-6.5 7.5 0 14 1.2 19.6 3.6 5.6 2.4 10 5.7 13.3 9.9 3.3 4.2 5.7 8.8 7.2 13.7 1.5 4.9 2.3 12.6 2.3 23v8.8c0 34.5-34.4 36.3-34.4 36.3-2.5.6-3.7 3.6-3.7 3.6-.8 2.4-1.2 8.8-1.2 8.8H1251c0-33.5 29.2-31.9 29.2-31.9M137.5 49.8l-11 95.1H80.6c-4.2-21.8-7.9-46.6-11.1-74.5-1.5 11.9-4.9 36.8-10.3 74.5H13.6L0 27.2l35 6.3 1.8 18.9 3.8 47.9c1-17.7 3-39.3 6-64.9l45.7 7.5c.2 2.3.4 4.2.6 6.7l4.1 54c1.2-20 2.9-39.8 5-59.4l35.5 5.6zm-33.6-22.6c1-8.1 2.1-16.2 3.2-24.3h35.7l-3.6 31.5-35.3-7.2zM49.2 14.8c.5-3.8 1-7.9 1.5-11.9h38.2c.3 2.6 1 9.9 1.9 21.5l-41.6-9.6zM234.7 63v81.9h-36.8V85.3H187V145h-36.8V51.6L234.7 63zm-36.8-18.7l36.8 5.8V3h-36.8v41.3m-47.7-8.1V3H187v39.7l-36.8-6.5zM309.3 71.7v13.6h-23v31.3h26.9V145h-63.7V65l59.8 6.7zm-59.8-19.2V3h61.3v28.4h-24.6v26.2l-36.7-5.1zM402.5 81.2c1.2 1.9 2 3.7 2.4 5.3.6 2.5.9 9.5.9 21v37.4h-34.2V97.8c0-7.6-.6-12.3-1.8-14.1-1.2-1.8-4.3-2.7-9.3-2.7v64h-36.8V73.3l78.8 7.9zm-78.7-18.9V3h26c17.3 0 29.1.7 35.2 2 6.1 1.3 11.2 4.8 15 10.3 3.9 5.5 5.8 14.4 5.8 26.5 0 11.1-1.4 18.5-4.1 22.3-2.2 3.1-6.1 5.1-11.8 6.2l-66.1-8zm36.8-35v31.6c4.1 0 7-.6 8.6-1.7 1.6-1.2 2.5-4.9 2.5-11.1v-7.8c0-4.5-.8-7.5-2.4-8.9-1.6-1.4-4.5-2.1-8.7-2.1M456.9 86.2v30.4h26.9V145h-63.7V83l36.8 3.2zm-36.8-12.8V3h61.3v28.4h-24.6v26.8h23v21.1l-59.7-5.9zM513.9 3v12.7c0 6.6-.8 12.1-2.4 16.4-1.6 4.3-4.3 7.9-8.2 10.9-3.9 3-8.3 5-13.1 6V38.8c3.5-1.9 5.4-4.6 5.9-8h-5.9V3h23.7zM604.8 97.3c.4 3.5.6 7.1.6 11.3 0 10.1-1.2 17.6-3.5 22.3-2.4 4.8-6.9 8.8-13.7 12.1-6.8 3.3-14.6 4.9-23.6 4.9-9.8 0-18.2-1.9-25.2-5.6-6.9-3.7-11.5-8.5-13.7-14.3-2.1-5.8-3.2-14-3.2-24.7V94h34.2v17.3c0 5.3.5 8.8 1.4 10.3.9 1.5 2.6 2.3 5.1 2.3 2.4 0 4.2-1 5.4-2.9 1.2-1.9 1.8-4.8 1.8-8.6 0-8.4-1.1-13.8-3.4-16.4-.4-.4-.9-.8-1.5-1.3l39.3 2.6zm-51-11.5c-1.2-.8-2.6-1.8-4-2.7-9.1-6-15.2-10.5-18.1-13.2-3-2.7-5.4-6.6-7.4-11.4-2-4.8-2.9-11.1-2.9-18.6 0-10.9 1.4-18.8 4.1-23.9 2.8-5 7.2-9 13.4-11.8 6.2-2.8 13.6-4.2 22.4-4.2 9.6 0 17.7 1.5 24.4 4.6 6.7 3.1 11.2 7 13.4 11.7 2.2 4.7 3.3 12.7 3.3 24v5.6h-34.2V35.4c0-4.9-.4-8-1.3-9.4-.9-1.4-2.3-2-4.3-2-2.2 0-3.9.9-5 2.7-1.1 1.8-1.7 4.6-1.7 8.3 0 4.7.6 8.3 1.9 10.7 1.2 2.4 4.7 5.3 10.4 8.7 16.4 9.7 26.7 17.7 30.9 24 2 2.9 3.5 6.9 4.5 11.4l-49.8-4zM700.6 103v41.9h-36.8v-44l36.8 2.1zm-36.7-9V31.4h-21.7V3h80.4v28.4h-21.8v65L663.9 94zM767.7 106.3v38.6h-36.8v-40.3l36.8 1.7zm47.6 2.2V145h-36.8v-38l36.8 1.5zm-36.7-7.5V85.3h-10.9v15.2l-36.8-2.1V3h36.8v50.7h10.9V3h36.8v100l-36.8-2zM866.9 110.6v5.9h26.9v28.4h-63.7v-35.7l36.8 1.4zm-36.7-6.9V3h61.3v28.4h-24.6v26.8h23v27.1h-23v20.2l-36.7-1.8zM972.8 113.8v2.7h22.3v28.4H936v-32l36.8.9zm-36.8-5.3V3h36.8v106.9l-36.8-1.4zM1040.8 115.3v29.6H1004v-30.3l36.8.7zM1004 111V3h36.8v109.3L1004 111zM1086.3 116.2v28.7h-30.8v-29.3l30.8.6zm51.3.6v28.1h-32.2l-8.5-28.6 40.7.5zm-41.3-2.9l-9.9-33.5v33.3l-30.8-.9V3h30.7l20.6 63.9V3h30.8v112.1l-41.4-1.2zM1216.1 117.1V145h-63.7v-28l63.7.1zm-63.7-1.9V3h61.3v28.4h-24.6v26.8h23v27.1h-23V116l-36.7-.8zM1251.1 116.6h33.3v28.7h-33.3zM659.4 206v-42.2h14.2c3.6 0 7.2.4 10.1 2.8 2.8 2.3 4.3 6.3 4.3 9.8 0 3.3-1.4 6.6-3.7 8.9-2.8 2.8-6.3 3.4-10.1 3.4h-9.5V206h-5.3zm14.2-21.6c2.5 0 4.7-.2 6.7-2.2 1.5-1.5 2.3-3.7 2.3-5.8 0-2.5-.9-5-2.9-6.6-1.8-1.4-3.6-1.6-5.7-1.6h-9.3v16.2h8.9zM697.2 185.2c0-10.5 5.2-22 17.3-22 11.9 0 17.3 10.8 17.3 21.2 0 10.3-5.3 22.2-17.3 22.2s-17.3-10.8-17.3-21.4m29.1-.5c0-3.8-.6-8.1-2.5-11.5-1.9-3.3-5.2-5.7-9.1-5.7-9.4 0-12 10.1-12 17.7 0 7.3 3 17 11.9 17 9 .1 11.7-10.3 11.7-17.5M779.4 206h-5.2l-9.2-32.7-8.6 32.7h-5.3l-10.8-42.2h5.5l8.4 34.2h.1l8.9-34.2h4.3l9.6 34.2h.1l7.8-34.2h4.6zM827.2 206h-27.3v-42.2h26.7v4.5h-21.4v13.4h17v4.3h-17v15.4h22zM863.5 206l-7.8-18.2H844V206h-5.3v-42.2h15.8c3.4 0 6.8.4 9.6 2.6 2.8 2.1 4.5 5.7 4.5 9.2 0 5-2.9 9.5-7.9 10.8L869 206h-5.5zm-9.6-22.6c2.8 0 5.2-.2 7.2-2.3 1.5-1.5 2.2-3.5 2.2-5.5 0-2.5-.9-4.5-3-5.8-1.8-1.3-3.6-1.4-5.8-1.4H844v15.1h9.9zM929.5 206h-24.9v-42.2h5.3v37.5h19.6zM940.1 163.8h5.3V206h-5.3zM986.3 206l-21.4-36.8V206h-4.4v-42.2h6.6l20 34.4v-34.4h4.4V206zM1033.1 206h-27.3v-42.2h26.7v4.5h-21.4v13.4h17v4.3h-17v15.4h22zM1070 193.5c1.7 5.8 6.6 8.5 12.5 8.5 2.5 0 5.6-.6 7.6-2.1 1.6-1.2 2.6-3.4 2.6-5.4 0-4.2-3.5-5.9-7.2-6.9l-7-1.7c-2.8-.7-5.4-1.3-7.6-3.4-2.2-2-3.5-4.8-3.5-7.8 0-8.1 7-11.6 14.3-11.6 7.1 0 12.7 3.5 15 10.3l-4.8 1.3c-.9-4.6-5.8-7.4-10.3-7.4-4 0-9 2.1-9 6.7 0 4.7 3.7 5.8 7.6 6.7l6.3 1.5c2.8.6 5.5 1.4 7.7 3.2 2.6 2.2 3.9 5.1 3.9 8.4 0 3.8-1.6 7.2-4.7 9.6-3.1 2.3-7.2 3.1-11 3.1-8.6 0-14.2-3.8-17.1-12l4.7-1zM1134.1 206l-4.2-12.3h-15.6l-3.8 12.3h-4.4l13.6-42.2h6.1l13.7 42.2h-5.4zm-11.9-36.5l-6.5 20.2h13l-6.5-20.2zM1149.5 206v-42.2h25.8v4.5h-20.6v13.4h17.1v4.3h-17.1v20zM1211 206h-27.2v-42.2h26.6v4.5h-21.3v13.4h16.9v4.3h-16.9v15.4h21.9zM1230.2 206v-37.6h-12v-4.6h29.3v4.6h-12V206zM1272.9 188.2V206h-5.2v-17.8l-14.1-24.4h6.1l11.2 19.4 11.3-19.4h4.8z"></path></svg>
