<?xml version="1.0" encoding="utf-8"?>
<!-- Generator: Adobe Illustrator 23.0.1, SVG Export Plug-In . SVG Version: 6.00 Build 0)  -->
<svg version="1.1" id="Layer_1" xmlns="http://www.w3.org/2000/svg" xmlns:xlink="http://www.w3.org/1999/xlink" x="0px" y="0px"
	 viewBox="0 0 1024 1024" style="enable-background:new 0 0 1024 1024;" xml:space="preserve">
<style type="text/css">
	.st0{enable-background:new    ;}
</style>
<g class="st0">
	<path d="M708.4,315.9c20.6,22.9,30.9,58.4,30.9,106.5v294.8c0,18.6-17.4,27.8-52.2,27.8h-24.4c-34.8,0-52.2-9.3-52.2-27.8V441.6
		c0-18-3.9-31.4-11.7-40.4c-7.8-9-21-13.5-39.6-13.5c-26.7,0-49.6,16.5-68.7,49.6v280.1c0,18.6-17.4,27.8-52.2,27.8H414
		c-34.8,0-52.2-9.3-52.2-27.8V441.6c0-18-3.9-31.4-11.7-40.4c-7.8-9-21-13.5-39.6-13.5c-15.7,0-29.3,5.1-40.9,15.2
		c-11.6,10.2-20.9,21.9-27.8,35.2v279.2c0,18.6-17.4,27.8-52.2,27.8h-24.4c-34.8,0-52.2-9.3-52.2-27.8V441.6
		c0-25.5-0.7-45.1-2.2-58.7c-1.5-13.6-3.3-28.8-5.7-45.7c-1.7-8.1-2.6-14.2-2.6-18.3c0-9.3,11.7-16.2,35.2-20.9
		c23.5-4.6,44.2-7,62.2-7c10.4,0,17.7,3.9,21.7,11.7c4,7.8,7.1,16.4,9.1,25.7c2,9.3,3.3,15.7,3.9,19.1c13.9-18.5,32.3-34.2,55.2-47
		c22.9-12.7,47.4-19.1,73.5-19.1c30.1,0,54.6,5.4,73.5,16.1c18.8,10.7,32.6,27.4,41.3,50c14.5-18.5,33.6-34.2,57.4-47
		c23.8-12.7,49.3-19.1,76.5-19.1C655.8,281.5,687.8,293,708.4,315.9z"/>
	<path d="M815.8,717.3v-80c0-18.5,17.4-27.8,52.2-27.8h27.8c34.8,0,52.2,9.3,52.2,27.8v80c0,18.6-17.4,27.8-52.2,27.8H868
		C833.2,745.1,815.8,735.9,815.8,717.3z"/>
</g>
</svg>
